<svg width="180" height="53" viewBox="0 0 180 53" fill="none" xmlns="http://www.w3.org/2000/svg">
<path d="M173.333 1.39314C176.42 1.39314 178.932 3.83639 178.932 6.83897V45.7493C178.932 48.7519 176.42 51.1951 173.333 51.1951H6.66667C3.58 51.1951 1.06833 48.7519 1.06833 45.7493V6.83897C1.06833 3.83639 3.58 1.39314 6.66667 1.39314H173.333ZM173.333 0.353915H6.66667C3.00167 0.353915 0 3.27381 0 6.83897V45.7493C0 49.3145 3.00167 52.2344 6.66667 52.2344H173.333C176.998 52.2344 180 49.3145 180 45.7493V6.83897C180 3.27381 176.998 0.353915 173.333 0.353915Z" fill="#CCCCCC"/>
<path d="M13.9134 10.132C13.5217 10.5308 13.295 11.1518 13.295 11.9559V40.6393C13.295 41.4435 13.5217 42.0644 13.9134 42.4632L14.01 42.5508L30.5334 26.4841V26.1047L14.01 10.0379L13.9134 10.132Z" fill="url(#paint0_linear_2509_596)"/>
<path d="M36.035 31.8423L30.5333 26.484V26.1046L36.0417 20.7464L36.165 20.8161L42.6883 24.4266C44.55 25.4513 44.55 27.1374 42.6883 28.1685L36.165 31.7726L36.035 31.8423Z" fill="url(#paint1_linear_2509_596)"/>
<path d="M36.165 31.7724L30.5333 26.2941L13.9133 42.463C14.5317 43.0953 15.54 43.1715 16.6867 42.5392L36.165 31.7724Z" fill="url(#paint2_linear_2509_596)"/>
<path d="M36.165 20.8157L16.6867 10.0489C15.54 9.42307 14.5317 9.49927 13.9133 10.1316L30.5333 26.2939L36.165 20.8157Z" fill="url(#paint3_linear_2509_596)"/>
<path d="M63.2233 13.6401C63.2233 14.7231 62.8899 15.5905 62.2333 16.2374C61.4783 17.0042 60.4949 17.3901 59.2899 17.3901C58.1383 17.3901 57.1549 16.9977 56.3483 16.2244C55.5399 15.4397 55.1366 14.4767 55.1366 13.3239C55.1366 12.1712 55.5399 11.2082 56.3483 10.43C57.1549 9.65016 58.1383 9.25781 59.2899 9.25781C59.8633 9.25781 60.4099 9.37292 60.9316 9.58693C61.4516 9.80256 61.8749 10.0944 62.1816 10.4543L61.4849 11.1385C60.9499 10.524 60.2216 10.2208 59.2899 10.2208C58.4499 10.2208 57.7216 10.5062 57.1033 11.0817C56.4916 11.6589 56.1849 12.4063 56.1849 13.3239C56.1849 14.2416 56.4916 14.9955 57.1033 15.5726C57.7216 16.1417 58.4499 16.4335 59.2899 16.4335C60.1816 16.4335 60.9316 16.1417 61.5233 15.5661C61.9133 15.1852 62.1349 14.6599 62.1933 13.9887H59.2899V13.0516H63.1633C63.2099 13.2542 63.2233 13.4504 63.2233 13.6401Z" fill="white" stroke="white" stroke-width="0.16" stroke-miterlimit="10"/>
<path d="M69.3683 10.391H65.73V12.8553H69.01V13.7924H65.73V16.2567H69.3683V17.2116H64.7V9.43604H69.3683V10.391Z" fill="white" stroke="white" stroke-width="0.16" stroke-miterlimit="10"/>
<path d="M73.7049 17.2116H72.6749V10.391H70.4432V9.43604H75.9382V10.391H73.7049V17.2116Z" fill="white" stroke="white" stroke-width="0.16" stroke-miterlimit="10"/>
<path d="M79.9149 17.2116V9.43604H80.9433V17.2116H79.9149Z" fill="white" stroke="white" stroke-width="0.16" stroke-miterlimit="10"/>
<path d="M85.5015 17.2116H84.4799V10.391H82.2399V9.43604H87.7415V10.391H85.5015V17.2116Z" fill="white" stroke="white" stroke-width="0.16" stroke-miterlimit="10"/>
<path d="M98.145 16.2114C97.3566 16.9977 96.38 17.3901 95.215 17.3901C94.0433 17.3901 93.0666 16.9977 92.2783 16.2114C91.4916 15.4267 91.1 14.4637 91.1 13.3239C91.1 12.1842 91.4916 11.2212 92.2783 10.4365C93.0666 9.65016 94.0433 9.25781 95.215 9.25781C96.3733 9.25781 97.35 9.65016 98.1383 10.443C98.9317 11.2341 99.3233 12.1907 99.3233 13.3239C99.3233 14.4637 98.9316 15.4267 98.145 16.2114ZM93.04 15.5597C93.6333 16.1417 94.355 16.4335 95.215 16.4335C96.0683 16.4335 96.7966 16.1417 97.3833 15.5597C97.975 14.9776 98.275 14.2302 98.275 13.3239C98.275 12.4177 97.975 11.6703 97.3833 11.0882C96.7966 10.5062 96.0683 10.2144 95.215 10.2144C94.355 10.2144 93.6333 10.5062 93.04 11.0882C92.4483 11.6703 92.1483 12.4177 92.1483 13.3239C92.1483 14.2302 92.4483 14.9776 93.04 15.5597Z" fill="white" stroke="white" stroke-width="0.16" stroke-miterlimit="10"/>
<path d="M100.768 17.2116V9.43604H102.018L105.905 15.4833H105.95L105.905 13.9885V9.43604H106.933V17.2116H105.86L101.79 10.866H101.745L101.79 12.3673V17.2116H100.768Z" fill="white" stroke="white" stroke-width="0.16" stroke-miterlimit="10"/>
<path d="M90.8466 28.5671C87.715 28.5671 85.1566 30.8855 85.1566 34.0842C85.1566 37.257 87.715 39.5998 90.8466 39.5998C93.985 39.5998 96.5433 37.257 96.5433 34.0842C96.5433 30.8855 93.985 28.5671 90.8466 28.5671ZM90.8466 37.4273C89.1283 37.4273 87.65 36.0476 87.65 34.0842C87.65 32.0949 89.1283 30.7396 90.8466 30.7396C92.565 30.7396 94.05 32.0949 94.05 34.0842C94.05 36.0476 92.565 37.4273 90.8466 37.4273ZM78.4316 28.5671C75.2933 28.5671 72.7416 30.8855 72.7416 34.0842C72.7416 37.257 75.2933 39.5998 78.4316 39.5998C81.5683 39.5998 84.1216 37.257 84.1216 34.0842C84.1216 30.8855 81.5683 28.5671 78.4316 28.5671ZM78.4316 37.4273C76.7116 37.4273 75.2283 36.0476 75.2283 34.0842C75.2283 32.0949 76.7116 30.7396 78.4316 30.7396C80.15 30.7396 81.6283 32.0949 81.6283 34.0842C81.6283 36.0476 80.15 37.4273 78.4316 37.4273ZM63.6583 30.258V32.6024H69.4133C69.245 33.9124 68.795 34.8754 68.105 35.5466C67.265 36.3572 65.9566 37.257 63.6583 37.257C60.1166 37.257 57.3433 34.4766 57.3433 31.0314C57.3433 27.5862 60.1166 24.8057 63.6583 24.8057C65.5733 24.8057 66.9666 25.5337 67.995 26.4773L69.6933 24.8252C68.255 23.4893 66.3416 22.463 63.6583 22.463C58.8016 22.463 54.72 26.307 54.72 31.0314C54.72 35.7558 58.8016 39.5998 63.6583 39.5998C66.2833 39.5998 68.255 38.7632 69.805 37.1938C71.3933 35.6488 71.8883 33.4763 71.8883 31.7221C71.8883 31.1773 71.8416 30.6763 71.7583 30.258H63.6583ZM124.068 32.0755C123.6 30.8417 122.155 28.5671 119.212 28.5671C116.295 28.5671 113.867 30.8028 113.867 34.0842C113.867 37.1744 116.27 39.5998 119.492 39.5998C122.097 39.5998 123.6 38.0547 124.218 37.1549L122.285 35.9017C121.64 36.8193 120.762 37.4273 119.492 37.4273C118.23 37.4273 117.325 36.8647 116.745 35.7558L124.33 32.7029L124.068 32.0755ZM116.335 33.9124C116.27 31.7853 118.033 30.6958 119.297 30.6958C120.287 30.6958 121.127 31.1773 121.407 31.8663L116.335 33.9124ZM110.17 39.2642H112.663V23.0515H110.17V39.2642ZM106.087 29.796H106.003C105.443 29.1507 104.375 28.5671 103.022 28.5671C100.182 28.5671 97.585 30.9925 97.585 34.1021C97.585 37.1938 100.182 39.5998 103.022 39.5998C104.375 39.5998 105.443 39.0113 106.003 38.3465H106.087V39.1377C106.087 41.247 104.928 42.3802 103.06 42.3802C101.537 42.3802 100.592 41.3102 100.202 40.4104L98.0333 41.2908C98.6583 42.7531 100.313 44.5527 103.06 44.5527C105.983 44.5527 108.45 42.8796 108.45 38.8086V28.9027H106.087V29.796ZM103.235 37.4273C101.517 37.4273 100.078 36.0281 100.078 34.1021C100.078 32.1582 101.517 30.7396 103.235 30.7396C104.928 30.7396 106.263 32.1582 106.263 34.1021C106.263 36.0281 104.928 37.4273 103.235 37.4273ZM135.742 23.0515H129.778V39.2642H132.265V33.1212H135.742C138.503 33.1212 141.212 31.1773 141.212 28.0856C141.212 24.9954 138.497 23.0515 135.742 23.0515ZM135.807 30.866H132.265V25.3067H135.807C137.663 25.3067 138.723 26.8064 138.723 28.0856C138.723 29.3404 137.663 30.866 135.807 30.866ZM151.178 28.5363C149.382 28.5363 147.513 29.308 146.745 31.0184L148.952 31.9182C149.427 31.0184 150.3 30.7266 151.223 30.7266C152.513 30.7266 153.822 31.4805 153.842 32.8115V32.9818C153.392 32.7289 152.428 32.3543 151.243 32.3543C148.867 32.3543 146.445 33.627 146.445 36.0022C146.445 38.1747 148.392 39.5738 150.58 39.5738C152.253 39.5738 153.177 38.8394 153.757 37.985H153.842V39.2382H156.243V33.0191C156.243 30.1446 154.037 28.5363 151.178 28.5363ZM150.878 37.4208C150.065 37.4208 148.932 37.0284 148.932 36.0476C148.932 34.7927 150.345 34.3112 151.568 34.3112C152.663 34.3112 153.177 34.5463 153.842 34.856C153.647 36.3572 152.318 37.4208 150.878 37.4208ZM164.993 28.8913L162.135 35.9195H162.05L159.095 28.8913H156.413L160.853 38.7129L158.32 44.1782H160.918L167.76 28.8913H164.993ZM142.578 39.2642H145.072V23.0515H142.578V39.2642Z" fill="white"/>
<defs>
<linearGradient id="paint0_linear_2509_596" x1="29.0663" y1="40.938" x2="7.30763" y2="18.57" gradientUnits="userSpaceOnUse">
<stop stop-color="#00A0FF"/>
<stop offset="0.0066" stop-color="#00A1FF"/>
<stop offset="0.2601" stop-color="#00BEFF"/>
<stop offset="0.5122" stop-color="#00D2FF"/>
<stop offset="0.7604" stop-color="#00DFFF"/>
<stop offset="1" stop-color="#00E3FF"/>
</linearGradient>
<linearGradient id="paint1_linear_2509_596" x1="45.1125" y1="26.2925" x2="12.85" y2="26.2925" gradientUnits="userSpaceOnUse">
<stop stop-color="#FFE000"/>
<stop offset="0.4087" stop-color="#FFBD00"/>
<stop offset="0.7754" stop-color="#FFA500"/>
<stop offset="1" stop-color="#FF9C00"/>
</linearGradient>
<linearGradient id="paint2_linear_2509_596" x1="33.1027" y1="23.3161" x2="3.59614" y2="-7.01675" gradientUnits="userSpaceOnUse">
<stop stop-color="#FF3A44"/>
<stop offset="1" stop-color="#C31162"/>
</linearGradient>
<linearGradient id="paint3_linear_2509_596" x1="9.72973" y1="52.0056" x2="22.9057" y2="38.4608" gradientUnits="userSpaceOnUse">
<stop stop-color="#32A071"/>
<stop offset="0.0685" stop-color="#2DA771"/>
<stop offset="0.4762" stop-color="#15CF74"/>
<stop offset="0.8009" stop-color="#06E775"/>
<stop offset="1" stop-color="#00F076"/>
</linearGradient>
</defs>
</svg>
