<svg width="24" height="24" viewBox="0 0 24 24" fill="none" xmlns="http://www.w3.org/2000/svg">
<rect x="0.25" y="0.25" width="23.5" height="23.5" rx="11.75" fill="white"/>
<rect x="0.25" y="0.25" width="23.5" height="23.5" rx="11.75" stroke="#2B2129" stroke-width="0.5"/>
<path d="M11.9466 4.12856C15.0191 4.13148 17.6549 6.28481 18.2453 9.21564C18.5178 10.5719 18.3287 11.8715 17.7953 13.1323C17.257 14.4036 16.4808 15.524 15.5937 16.5706C14.612 17.7253 13.5178 18.7793 12.3274 19.7173C12.0628 19.9256 11.9395 19.9286 11.6799 19.7215C10.0162 18.3927 8.52282 16.9002 7.31574 15.1381C6.61574 14.1165 6.04075 13.0306 5.78241 11.8073C5.35783 9.79481 5.82407 7.98897 7.12574 6.41105C8.14115 5.17939 9.46615 4.45814 11.0424 4.20064C11.3411 4.15043 11.6437 4.12631 11.9466 4.12856Z" fill="#2B2129"/>
<path d="M15.6614 13.8748C13.7956 16.0035 10.2864 16.059 8.33515 13.8748C8.59223 13.8748 8.83516 13.8673 9.07599 13.8777C9.20974 13.8835 9.25724 13.8564 9.25599 13.7064C9.24765 12.7381 9.24932 11.7698 9.25599 10.8015C9.25599 10.6677 9.2339 10.6198 9.08431 10.6219C8.4389 10.6315 7.79265 10.6219 7.14765 10.6285C7.03598 10.6285 7.00056 10.609 7.00098 10.4873C7.00598 7.92396 8.99473 5.74854 11.5426 5.52896C14.0906 5.30938 16.376 6.9952 16.8997 9.4927C16.966 9.82433 16.9997 10.1616 17.0006 10.4998C17.0006 10.599 16.9781 10.6298 16.8735 10.629C16.2127 10.624 15.5514 10.629 14.8902 10.6235C14.7739 10.6235 14.7456 10.6502 14.746 10.7673C14.7513 11.7562 14.7513 12.7452 14.746 13.7344C14.746 13.8519 14.7735 13.8827 14.8902 13.8781C15.1431 13.8673 15.3964 13.8748 15.6614 13.8748Z" fill="white"/>
<path d="M9.62553 10.6251C9.62553 9.6157 9.62553 8.60597 9.62553 7.59597C9.62553 7.25763 9.75804 7.12598 10.0976 7.12598C11.3676 7.12598 12.6376 7.12598 13.9076 7.12598C14.238 7.12598 14.3735 7.25931 14.3735 7.58431C14.3735 9.62987 14.3743 11.6753 14.3759 13.7206C14.3759 13.8385 14.3526 13.8772 14.2268 13.8743C13.821 13.8651 13.4147 13.8668 13.0089 13.8743C12.9022 13.8764 12.8697 13.8531 12.871 13.7406C12.8776 13.1839 12.8747 12.6268 12.8739 12.0701C12.8739 11.7627 12.7339 11.6235 12.4259 11.6226C12.1397 11.6226 11.8535 11.6226 11.5672 11.6226C11.2693 11.6226 11.1255 11.7651 11.1251 12.0601C11.1251 12.6222 11.1222 13.1851 11.1251 13.7464C11.1251 13.8485 11.0993 13.8752 10.9976 13.8739C10.581 13.8681 10.1643 13.8681 9.74762 13.8739C9.64554 13.8739 9.61971 13.8481 9.62012 13.7464C9.62804 12.7085 9.62553 11.6668 9.62553 10.6251Z" fill="#2B2129"/>
<path d="M10.1255 8.22965C10.1255 8.15173 10.1222 8.07341 10.1255 7.99591C10.1273 7.89876 10.1668 7.80611 10.2356 7.73748C10.3044 7.66885 10.3971 7.62959 10.4943 7.62799C10.5914 7.62629 10.6854 7.66279 10.7559 7.72965C10.8264 7.79651 10.8679 7.88838 10.8713 7.98549C10.8793 8.16174 10.8788 8.33882 10.8713 8.51507C10.8686 8.61237 10.8278 8.7047 10.7576 8.77219C10.6875 8.83968 10.5937 8.87693 10.4963 8.87591C10.3992 8.87475 10.3064 8.83599 10.2373 8.76776C10.1682 8.69953 10.1283 8.60716 10.1259 8.51009C10.123 8.41675 10.1255 8.32298 10.1255 8.22965Z" fill="white"/>
<path d="M11.6251 8.25252C11.6251 8.16419 11.6205 8.07545 11.6251 7.98753C11.6291 7.89077 11.6703 7.79928 11.7402 7.73226C11.8101 7.66523 11.9032 7.62785 12.0001 7.62793C12.0946 7.62802 12.1855 7.66437 12.2541 7.72949C12.3226 7.79461 12.3635 7.88354 12.3684 7.97795C12.3776 8.15961 12.3772 8.34211 12.3684 8.52336C12.3638 8.61781 12.3233 8.70694 12.2551 8.77248C12.187 8.83802 12.0963 8.87501 12.0018 8.87585C11.9046 8.87671 11.8109 8.83983 11.7404 8.77299C11.6699 8.70615 11.6282 8.61456 11.6238 8.51752C11.6218 8.42918 11.6251 8.34086 11.6251 8.25252Z" fill="white"/>
<path d="M13.8749 8.25437C13.8749 8.34271 13.8799 8.43147 13.8749 8.51939C13.8716 8.61597 13.831 8.7075 13.7615 8.77468C13.6921 8.84186 13.5992 8.87941 13.5026 8.87941C13.4059 8.87941 13.3131 8.84186 13.2436 8.77468C13.1742 8.7075 13.1335 8.61597 13.1303 8.51939C13.1224 8.33772 13.1215 8.15563 13.1303 7.97396C13.1373 7.88014 13.1795 7.79245 13.2485 7.72845C13.3175 7.66446 13.4081 7.62891 13.5022 7.62891C13.5962 7.62891 13.6868 7.66446 13.7558 7.72845C13.8248 7.79245 13.867 7.88014 13.874 7.97396C13.8786 8.06688 13.8749 8.16104 13.8749 8.25437Z" fill="white"/>
<path d="M10.8749 10.2499C10.8749 10.3433 10.8811 10.4374 10.8749 10.5304C10.8682 10.6246 10.826 10.7128 10.7567 10.7771C10.6874 10.8414 10.5964 10.8769 10.5019 10.8765C10.4074 10.8762 10.3166 10.8399 10.2478 10.7751C10.179 10.7103 10.1375 10.6218 10.1316 10.5274C10.1224 10.3462 10.1232 10.1637 10.1316 9.98244C10.1374 9.88745 10.1793 9.79827 10.2487 9.73318C10.3182 9.66808 10.4099 9.63201 10.505 9.63233C10.6002 9.63265 10.6917 9.66933 10.7607 9.73489C10.8297 9.80044 10.871 9.88991 10.8761 9.98495C10.882 10.0729 10.8761 10.1616 10.8761 10.2499H10.8749Z" fill="white"/>
<path d="M12.375 10.2499C12.375 10.3437 12.3813 10.4374 12.375 10.5303C12.3682 10.6246 12.3257 10.7127 12.2563 10.7768C12.1869 10.841 12.0957 10.8763 12.0012 10.8757C11.9067 10.8751 11.816 10.8387 11.7474 10.7737C11.6788 10.7087 11.6374 10.6201 11.6317 10.5257C11.6226 10.3441 11.623 10.162 11.6317 9.98031C11.6378 9.88532 11.68 9.79625 11.7497 9.73137C11.8193 9.66649 11.9112 9.63072 12.0064 9.63136C12.1016 9.632 12.1929 9.669 12.2617 9.73481C12.3305 9.80062 12.3715 9.89025 12.3763 9.98532C12.3821 10.0732 12.3763 10.1616 12.3763 10.2499H12.375Z" fill="white"/>
<path d="M13.8728 10.2501C13.8728 10.3438 13.879 10.4376 13.8728 10.5305C13.8659 10.6247 13.8235 10.7129 13.7541 10.777C13.6847 10.8411 13.5935 10.8765 13.499 10.8759C13.4045 10.8753 13.3137 10.8388 13.2451 10.7739C13.1765 10.7089 13.1352 10.6202 13.1295 10.5259C13.1207 10.3442 13.1211 10.1621 13.1295 9.98048C13.1346 9.88484 13.1763 9.79487 13.2461 9.72922C13.3158 9.66356 13.4082 9.62729 13.5039 9.62794C13.5997 9.62858 13.6915 9.66607 13.7604 9.73265C13.8292 9.79924 13.8698 9.88978 13.8736 9.98548C13.8794 10.0734 13.8736 10.1617 13.8736 10.2501H13.8728Z" fill="white"/>
</svg>
